<svg width="126" height="16" viewBox="0 0 126 16" fill="none" xmlns="http://www.w3.org/2000/svg">
<g id="_&#208;&#161;&#208;&#187;&#208;&#190;&#208;&#185;_1" clip-path="url(#clip0_56623_600)">
<path id="Vector" d="M47.7921 5.16528H36.6514V7.19064H47.7921C47.7662 7.27029 47.8729 7.36619 47.8729 7.39382V10.6334C47.8729 10.6415 47.7598 10.7553 47.7517 10.7553H36.6514V12.7807H47.7921V16.425H33.0988C33.1247 16.3454 33.0181 16.2495 33.0181 16.2218V1.7225C33.0181 1.71437 33.1312 1.60059 33.1392 1.60059H47.7517C47.7598 1.60059 47.8729 1.71274 47.8729 1.7225V4.96209C47.8729 4.9881 47.7662 5.08563 47.7921 5.16528Z" fill="#FEFEFF"/>
<path id="Vector_2" d="M123.882 1.60059C124.664 1.71112 125.609 2.61164 125.837 3.36424C126.047 4.0567 126.028 7.67991 125.932 8.51704C125.819 9.50046 124.853 10.5798 123.863 10.7342C123.567 10.7797 123.263 10.7147 122.992 10.7537C122.881 10.77 122.853 10.7082 122.873 10.8756L125.698 16.425H121.944L118.795 10.7553H115.202V16.2235C115.202 16.2495 115.095 16.347 115.121 16.4267H111.649V1.60059H123.881H123.882ZM122.388 5.16528H115.204V7.19064H122.388V5.16528Z" fill="#FEFEFF"/>
<path id="Vector_3" d="M88.8038 6.46121H85.332V5.16569H77.1785V12.7795H85.332V11.484H88.8038C89.1043 13.5565 88.9605 16.0938 86.4128 16.4157C83.122 16.2596 79.5888 16.6579 76.3271 16.4287C74.6679 16.3133 73.7277 15.2746 73.6227 13.6345C73.4207 10.507 73.7729 7.15366 73.6372 4.00184C73.7503 2.81524 74.7083 1.7099 75.9248 1.59937C79.3077 1.2889 83.1559 1.84157 86.5873 1.59937C88.9847 1.99437 89.0881 4.49274 88.8038 6.46283V6.46121Z" fill="#FEFEFF"/>
<path id="Vector_4" d="M14.774 5.16528H3.55255V7.19064H14.774C14.7482 7.27029 14.8548 7.36619 14.8548 7.39382V10.6334C14.8548 10.6415 14.7417 10.7553 14.7336 10.7553H3.67371C3.66564 10.7553 3.55255 10.8675 3.55255 10.8772V16.425H0.121165C0.113087 16.425 0 16.3129 0 16.3031V1.7225C0 1.71437 0.113087 1.60059 0.121165 1.60059H14.7336C14.7417 1.60059 14.8548 1.71274 14.8548 1.7225V4.96209C14.8548 4.9881 14.7482 5.08563 14.774 5.16528Z" fill="#FEFEFF"/>
<path id="Vector_5" d="M54.5742 1.60059C55.5548 3.19194 56.6566 4.71177 57.7632 6.21535L61.0735 1.60059H65.3126L60.2528 9.01118L65.3126 16.4234H61.0735L57.7632 11.7274L54.453 16.4234H50.335C50.3253 16.4234 50.1735 16.3064 50.2526 16.2625L55.2866 8.94617L50.2139 1.60059H54.5726H54.5742Z" fill="#FEFEFF"/>
<path id="Vector_6" d="M91.3468 16.4236L98.0448 1.67876L102.087 1.59424L102.213 1.65113L109.194 16.2594C109.265 16.3098 109.118 16.4252 109.106 16.4252H105.352L100.145 5.814L95.0997 16.4252H91.3452L91.3468 16.4236Z" fill="#FEFEFF"/>
<path id="Vector_7" d="M20.7482 1.60059V12.7791H30.5577C30.5658 12.7791 30.6789 12.8912 30.6789 12.901V16.3031C30.6789 16.3112 30.5658 16.425 30.5577 16.425H17.1973V1.60059H20.7498H20.7482Z" fill="#FEFEFF"/>
<path id="Vector_8" d="M67.7329 16.4234V1.60059H71.1643C71.1724 1.60059 71.2855 1.71274 71.2855 1.7225V16.3015C71.2855 16.3096 71.1724 16.4234 71.1643 16.4234H67.7329Z" fill="#FEFEFF"/>
</g>
<defs>
<clipPath id="clip0_56623_600">
<rect width="126" height="15" fill="white" transform="translate(0 0.5)"/>
</clipPath>
</defs>
</svg>
