<svg xmlns="http://www.w3.org/2000/svg" aria-hidden="true" style="position:absolute;width:0;height:0;overflow:hidden">
  <defs>
    <symbol id="icon-alert-circle" viewBox="0 0 32 32">
      <path stroke-linecap="round" stroke-linejoin="round" stroke-width="2" d="M16 10.667V16m0 5.334h.013M29.334 16c0 7.364-5.969 13.333-13.333 13.333S2.668 23.364 2.668 16 8.638 2.667 16.001 2.667 29.334 8.637 29.334 16z"/>
    </symbol>
    <symbol id="icon-check" viewBox="0 0 32 32">
      <path d="M26.731 8.469a1.6 1.6 0 0 1 0 2.262l-12.8 12.8a1.6 1.6 0 0 1-2.262 0l-6.4-6.4a1.6 1.6 0 0 1 2.262-2.262l5.269 5.269L24.469 8.469a1.6 1.6 0 0 1 2.262 0z"/>
    </symbol>
    <symbol id="icon-check-circle-broken" viewBox="0 0 30 32">
      <path stroke-linecap="round" stroke-linejoin="round" stroke-width="1.882" d="M27.608 14.853v1.155A12.543 12.543 0 0 1 10.71 27.772a12.549 12.549 0 1 1 9.456-23.234m7.442 1.423L15.059 18.523l-3.765-3.765"/>
    </symbol>
    <symbol id="icon-chevron-down" viewBox="0 0 32 32">
      <path stroke-linecap="round" stroke-linejoin="round" stroke-width="2.667" d="m8 12 8 8 8-8"/>
    </symbol>
    <symbol id="icon-chevron-right" viewBox="0 0 32 32">
      <path stroke-linecap="round" stroke-linejoin="round" stroke-width="4" d="m12 24 8-8-8-8"/>
    </symbol>
    <symbol id="icon-globe-05" viewBox="0 0 32 32">
      <path stroke-linecap="round" stroke-linejoin="round" stroke-width="2.667" d="M20 3.277a13.314 13.314 0 0 0-4-.61C8.636 2.667 2.667 8.637 2.667 16S8.637 29.333 16 29.333c7.364 0 13.333-5.97 13.333-13.333 0-2.287-.576-4.44-1.591-6.321m-5.075-2.012h.007M14 29.184v-2.938a.67.67 0 0 1 .16-.434l3.314-3.867a.667.667 0 0 0-.175-1.013l-3.808-2.176a.67.67 0 0 1-.248-.248l-2.482-4.35a.668.668 0 0 0-.638-.334l-7.37.656M28 8c0 2.946-2.667 5.333-5.333 8-2.667-2.667-5.333-5.054-5.333-8A5.333 5.333 0 1 1 28 8zm-5-.333a.333.333 0 1 1-.666 0 .333.333 0 0 1 .666 0z"/>
    </symbol>
    <symbol id="icon-headphones-01" viewBox="0 0 32 32">
      <path stroke-linecap="round" stroke-linejoin="round" stroke-width="2.667" d="M28 24v-8c0-6.627-5.373-12-12-12S4 9.373 4 16v8m3.333 4A3.333 3.333 0 0 1 4 24.667V22a3.333 3.333 0 1 1 6.666 0v2.667A3.333 3.333 0 0 1 7.333 28zm17.334 0a3.333 3.333 0 0 1-3.333-3.333V22A3.333 3.333 0 1 1 28 22v2.667A3.333 3.333 0 0 1 24.667 28z"/>
    </symbol>
    <symbol id="icon-additional-driver" viewBox="0 0 32 32">
      <path d="M14.032 12.257a7.72 7.72 0 0 0 1.527.155c1.758 0 3.387-.63 4.614-1.818 1.84-1.779 2.414-4.397 1.463-6.668-.795-1.9-2.652-3.351-4.846-3.789-2.033-.405-4.083.1-5.626 1.386a6.118 6.118 0 0 0-1.927 6.592c.693 2.158 2.44 3.667 4.795 4.142h.001zm-2.343-6.378c.108-1.413 1.116-2.715 2.51-3.241a3.703 3.703 0 0 1 1.311-.244c.765 0 1.523.245 2.216.727 1.195.832 1.779 2.272 1.525 3.761A3.71 3.71 0 0 1 16.8 9.798c-1.455.51-2.566.118-3.241-.302-1.225-.761-1.977-2.215-1.869-3.617h-.001zm8.069 7.878H11.3c-3.636 0-6.594 2.967-6.594 6.614v3.152c0 .775.649 1.404 1.449 1.404H7.9c.098 2.05 1.072 3.961 2.721 5.304a7.872 7.872 0 0 0 4.984 1.77c.499 0 1.002-.047 1.502-.142 3.46-.658 6.009-3.533 6.213-6.929.069-.002.141-.002.212-.002h.139l.226.003.148.002a.017.017 0 0 0-.002-.005h.858c.801 0 1.449-.628 1.449-1.404v-3.152c0-3.646-2.958-6.613-6.594-6.613v-.001zM9.073 20.522c-.344.533-.566 1.054-.783 1.597h-.685V20.37c0-2.099 1.658-3.806 3.695-3.806h8.458c2.038 0 3.695 1.707 3.695 3.806v1.749h-.549c-.548-1.676-1.815-3.177-3.491-4.1a7.919 7.919 0 0 0-5.695-.748c-1.946.47-3.596 1.624-4.645 3.251zm11.286 2.705h-2.172c-.485-.936-1.464-1.524-2.586-1.524s-2.1.588-2.585 1.524h-2.295a4.892 4.892 0 0 1 1.737-2.549 5.284 5.284 0 0 1 4.376-.917c1.655.38 3.062 1.69 3.591 3.256a1.493 1.493 0 0 0-.066.209v.001zm-6.11 6.028c-1.717-.49-3.076-1.82-3.535-3.463h2.284c.285.59.796.976 1.251 1.239v2.224h-.001zm1.552-4.582c-.018.028-.067.103-.272.079-.156-.019-.174-.165-.175-.228 0-.067.016-.224.193-.249.179-.025.226.045.246.074.06.09.063.235.006.324l.001-.001zm1.154 4.58v-2.216c.453-.255.962-.636 1.251-1.243h2.285c-.456 1.634-1.815 2.963-3.536 3.46v-.001z"/>
    </symbol>
    <symbol id="icon-baby-seat2" viewBox="0 0 32 32">
      <path d="M9.687 8.912c1.407 0 2.824-.659 3.723-2.147 1.609-2.659-.046-6.367-3.134-6.738a6.049 6.049 0 0 0-.632-.025c-.257 0-.517.01-.673.025-1.967.211-3.662 2.138-3.792 4.091-.196 2.931 2.143 4.794 4.509 4.794zm13.739 9.276c-1.046 0-2.206.287-3.105.513-1.558.39-3.799 1.398-5.459 1.398-.176 0-.345-.011-.507-.036-3.539-.539-3.63-4.23-4.655-6.939-.419-1.105-1.276-3.297-2.696-3.297-.074 0-.15.006-.226.018-1.46.233-2.759 1.817-3.309 3.108-1.995 4.678-.097 11.474 3.814 14.653-.151 1.305-.425 2.607-.485 3.919.033.202.244.463.459.475H19.76c.35-.004.536-.277.583-.601l-.425-3.107c.603-.367 1.253-.642 1.854-1.016 2.305-1.431 4.619-3.925 4.35-6.856-.16-1.747-1.332-2.234-2.694-2.234l-.001.003zm-2.987 6.924c-.225.139-.494.279-.78.425-.321.166-.686.353-1.054.577l-1.425.867.227 1.658.112.816H9.584l.007-.046c.074-.487.148-.991.209-1.509l.161-1.391-1.084-.881c-1.475-1.199-2.666-3.183-3.268-5.444-.603-2.263-.535-4.533.188-6.228a3.997 3.997 0 0 1 .929-1.303c.152.278.351.708.603 1.376.183.486.344 1.055.513 1.657.352 1.253.752 2.675 1.546 3.92 1.067 1.671 2.609 2.673 4.585 2.973.282.042.581.064.887.064 1.529 0 3.143-.535 4.567-1.007a22.484 22.484 0 0 1 1.505-.465c.737-.184 1.746-.438 2.492-.438.068 0 .127.003.176.006.098 1.714-1.633 3.422-3.164 4.372l.002.001z"/>
      <path d="M13.168 10.205c-.864.034-1.842.492-2.429 1.125l-.017.08c.37.861.694 1.742.986 2.633.537 1.638.678 3.884 2.66 4.385 1.421.359 3.283-.816 4.712-1.038l.149-.103-1.983-3.861 4.937-3.722c1.437-1.512.272-3.999-1.784-3.853-.466.033-.794.202-1.177.442-.763.479-5.093 3.968-5.429 3.976-.174.004-.38-.074-.624-.064h-.001zm16.692 5.899c-.502-.411-.923-.468-1.534-.582-1.451-.271-3.07-.498-4.539-.687-.408-.052-.765-.122-1.124-.122a2.2 2.2 0 0 0-.949.206c-.863.396-1.18 1.35-1.616 2.124.775-.061 1.553-.316 2.339-.399.303-.031.611-.05.919-.05 1.64 0 3.269.507 3.984 2.165.094.217.31 1.19.357 1.234.08.071.261.099.477.099.415 0 .962-.103 1.168-.198 1.497-.68 1.799-2.739.518-3.79z"/>
    </symbol>
    <symbol id="icon-car-doors" viewBox="0 0 32 32">
      <path d="M23.852 11.999v5.394c1.491 1.386 3.027 2.742 4.524 4.128 0.351 0.324 1.347 1.148 1.524 1.492 0.417 0.813-0.557 1.655-1.419 1.218-1.536-1.319-2.995-2.721-4.5-4.072l-0.128-0.058v6.485c0 1.636-2.119 3.394-3.903 3.371-2.581-0.106-5.289 0.136-7.855 0-1.696-0.090-3.212-1.1-3.744-2.581-0.062-0.174-0.201-0.628-0.201-0.79v-6.485l-0.128 0.058-4.465 4.065c-0.985 0.487-2.035-0.565-1.317-1.397l5.91-5.394v-5.433l-0.128 0.058-4.492 4.079c-0.877 0.423-1.873-0.432-1.412-1.25 1.948-1.888 4.018-3.682 6.011-5.536 0.068-2.563-0.369-4.792 1.499-6.928 2.019-2.31 4.696-2.545 7.761-2.379 3.025 0.164 5.679 2.206 6.308 4.914 0.333 1.436 0.056 2.936 0.179 4.394l5.74 5.2c0.907 0.776 0.044 2.056-1.106 1.594-1.555-1.312-3.012-2.732-4.527-4.086l-0.128-0.058-0-0zM21.803 8.65c-0.041-1.714 0.29-3.303-0.818-4.803-1.476-1.997-3.859-2.083-6.285-1.935-2.122 0.129-3.956 1.568-4.396 3.466-0.241 1.040-0.040 2.208-0.106 3.272 0.881-0.656 1.898-1.072 3.048-1.131 1.938-0.1 4.026 0.043 5.97 0.046 0.978 0.121 1.83 0.528 2.587 1.085zM13.218 9.401c-1.828 0.216-2.922 1.765-3.023 3.356-0.175 2.762 0.137 5.677 0 8.455 0.083 0.899 0.665 1.797 1.731 1.887l8.151 0.002c1.029-0.091 1.652-0.967 1.728-1.85-0.159-2.803 0.205-5.791 0-8.572-0.118-1.592-1.327-3.181-3.179-3.291-1.753-0.105-3.642 0.073-5.409 0.013h0zM21.804 24.542c-0.545 0.236-1.073 0.398-1.683 0.43-2.706 0.142-5.56-0.112-8.282 0-0.581-0.038-1.121-0.206-1.641-0.43v1.928c0 0.862 1.161 1.567 2.025 1.618 2.456 0.146 5.083-0.115 7.557 0 0.878 0.042 2.025-0.852 2.025-1.657v-1.889l-0-0z"></path>
    </symbol>
    <symbol id="icon-park-outline-petrol" viewBox="0 0 32 32">
      <path stroke-linejoin="round" stroke-width="2.667" d="M28 28V4h-2l-6 6.667H8l-4 4V28h24z"/>
      <path stroke-linecap="round" stroke-linejoin="round" stroke-width="2.667" d="M8 10.667 14.667 4h12M7.333 5.333 2.666 10m11.096 9.259c.954-1.253 1.69-2.986 2.087-3.926.696.94 2.207 3.299 2.684 4.553.596 1.567-.895 3.447-2.684 3.447s-3.28-2.507-2.087-4.074z"/>
    </symbol>
    <symbol id="icon-infinity" viewBox="0 0 32 32">
      <path stroke-linecap="round" stroke-linejoin="round" stroke-width="2.667" d="M24.237 10.667c6.795 0 6.795 10.667 0 10.667-6.793 0-9.511-10.667-16.985-10.667-6.113 0-6.113 10.667 0 10.667 7.475 0 10.192-10.667 16.987-10.667h-.001z"/>
    </symbol>
    <symbol id="icon-log-in" viewBox="0 0 32 32">
      <path stroke-linecap="round" stroke-linejoin="round" stroke-width="2" d="M8 22.667c0 1.24 0 1.86.136 2.369a3.999 3.999 0 0 0 2.828 2.828c.509.136 1.129.136 2.369.136H21.6c2.24 0 3.36 0 4.216-.436a3.991 3.991 0 0 0 1.748-1.748C28 24.96 28 23.84 28 21.6V10.4c0-2.24 0-3.36-.436-4.216a3.991 3.991 0 0 0-1.748-1.748C24.96 4 23.84 4 21.6 4h-8.267c-1.24 0-1.86 0-2.369.136a3.999 3.999 0 0 0-2.828 2.828C8 7.473 8 8.093 8 9.333m8 1.334L21.333 16m0 0L16 21.333M21.333 16H4"/>
    </symbol>
    <symbol id="icon-luggage-01" viewBox="0 0 32 32">
      <path stroke-linecap="round" stroke-linejoin="round" stroke-width="2" d="M10.666 29.334v-2.667m2-6.667V9.333m8.667 20.001v-2.667m-2-6.667V9.333m-7.6 17.334h8.533c2.24 0 3.36 0 4.216-.436a3.996 3.996 0 0 0 1.748-1.748c.436-.856.436-1.976.436-4.216v-11.2c0-2.24 0-3.36-.436-4.216a3.996 3.996 0 0 0-1.748-1.748c-.856-.436-1.976-.436-4.216-.436h-8.533c-2.24 0-3.36 0-4.216.436a3.996 3.996 0 0 0-1.748 1.748c-.436.856-.436 1.976-.436 4.216v11.2c0 2.24 0 3.36.436 4.216a3.991 3.991 0 0 0 1.748 1.748c.856.436 1.976.436 4.216.436z"/>
    </symbol>
    <symbol id="icon-minus" viewBox="0 0 31 32">
      <path stroke-linecap="round" stroke-linejoin="round" stroke-width="2.56" d="M6.4 16h17.92"/>
    </symbol>
    <symbol id="icon-navigation-pointer-01" viewBox="0 0 32 32">
      <path stroke-linecap="round" stroke-linejoin="round" stroke-width="2.667" d="M4.551 14.326c-.794-.309-1.191-.463-1.307-.685a.665.665 0 0 1 0-.615c.116-.223.512-.377 1.306-.687l22.517-8.787c.716-.28 1.074-.419 1.303-.343a.663.663 0 0 1 .421.421c.077.229-.063.587-.343 1.303L19.661 27.45c-.31.793-.465 1.19-.687 1.306-.193.1-.423.1-.615 0-.222-.116-.377-.513-.685-1.307l-3.504-9.011c-.063-.161-.094-.242-.142-.309a.66.66 0 0 0-.156-.156 1.423 1.423 0 0 0-.309-.142l-9.011-3.504z"/>
    </symbol>
    <symbol id="icon-phone" viewBox="0 0 32 32">
      <path stroke-linecap="round" stroke-linejoin="round" stroke-width="2" d="M11.174 11.804c.928 1.933 2.193 3.744 3.795 5.347s3.414 2.867 5.347 3.795c.166.08.249.12.355.15.374.109.833.031 1.149-.196.089-.064.165-.14.318-.292.466-.466.699-.699.934-.852a2.665 2.665 0 0 1 2.907 0c.234.152.467.385.934.852l.26.26c.709.709 1.063 1.063 1.255 1.443a2.665 2.665 0 0 1 0 2.407c-.192.381-.547.735-1.255 1.443l-.21.21c-.706.706-1.059 1.059-1.539 1.329-.533.299-1.36.514-1.971.513-.551-.002-.927-.108-1.679-.322-4.045-1.148-7.861-3.314-11.045-6.498s-5.35-7-6.498-11.045c-.214-.753-.32-1.129-.322-1.679-.002-.611.213-1.438.513-1.971.27-.48.623-.833 1.329-1.539l.21-.21c.709-.709 1.063-1.063 1.443-1.255a2.665 2.665 0 0 1 2.407 0c.38.192.735.547 1.443 1.255l.26.26c.466.466.699.699.852.934a2.665 2.665 0 0 1 0 2.907c-.152.234-.385.467-.852.934-.152.152-.229.229-.292.318a1.393 1.393 0 0 0-.196 1.149c.031.105.071.188.15.355z"/>
    </symbol>
    <symbol id="icon-plus" viewBox="0 0 31 32">
      <path stroke-linecap="round" stroke-linejoin="round" stroke-width="2.56" d="M15.36 7.04v17.92M6.4 16h17.92"/>
    </symbol>
    <symbol id="icon-tabler-manual-gearbox" viewBox="0 0 32 32">
      <path stroke-linecap="round" stroke-linejoin="round" stroke-width="2" d="M6.667 10.666a2.668 2.668 0 1 1 0-5.336 2.668 2.668 0 0 1 0 5.336zm0 0v10.667M16 10.666a2.668 2.668 0 1 1 0-5.336 2.668 2.668 0 0 1 0 5.336zm0 0v10.667m-9.333 0a2.668 2.668 0 1 1 0 5.336 2.668 2.668 0 0 1 0-5.336zm9.333 0a2.668 2.668 0 1 1 0 5.336 2.668 2.668 0 0 1 0-5.336zM22.667 8a2.668 2.668 0 1 0 5.336 0 2.668 2.668 0 0 0-5.336 0z"/>
      <path stroke-linecap="round" stroke-linejoin="round" stroke-width="2" d="M25.334 10.666v2.667A2.668 2.668 0 0 1 22.667 16h-16"/>
    </symbol>
    <symbol id="icon-users-01" viewBox="0 0 32 32">
      <path stroke-linecap="round" stroke-linejoin="round" stroke-width="2" d="M29.334 28v-2.667c0-2.485-1.7-4.573-4-5.165m-4.667-15.78a5.336 5.336 0 0 1 0 9.892m2 13.72c0-2.485 0-3.728-.406-4.708a5.332 5.332 0 0 0-2.886-2.886C18.395 20 17.152 20 14.667 20h-4c-2.485 0-3.728 0-4.708.406a5.332 5.332 0 0 0-2.886 2.886c-.406.98-.406 2.223-.406 4.708M18 9.333a5.333 5.333 0 1 1-10.666 0 5.333 5.333 0 0 1 10.666 0z"/>
    </symbol>
    <symbol id="icon-wifi" viewBox="0 0 32 32">
      <path stroke-linecap="round" stroke-linejoin="round" stroke-width="2.667" d="M16 26h.013m14.396-14.399C26.613 8.123 21.555 6 16 6S5.387 8.123 1.591 11.601m4.718 4.723c2.584-2.276 5.976-3.657 9.691-3.657s7.107 1.381 9.691 3.657m-4.76 4.709a7.967 7.967 0 0 0-4.931-1.7 7.964 7.964 0 0 0-4.993 1.749"/>
    </symbol>
    <symbol id="icon-menu" viewBox="0 0 32 32">
      <path stroke-linejoin="round" stroke-linecap="round" stroke-miterlimit="4" stroke-width="2" d="M4 16h24M4 8h24M4 24h24"></path>
    </symbol>  
  </defs>
</svg>
